<?xml version="1.0" encoding="UTF-8"?>
<svg width="512" height="512" viewBox="0 0 256 256" fill="none" xmlns="http://www.w3.org/2000/svg">
  <defs>
    <linearGradient id="vgGrad" x1="0" y1="0" x2="0" y2="1">
      <stop offset="0%" stop-color="#7C3AED"/>
      <stop offset="100%" stop-color="#8B5CF6"/>
    </linearGradient>
    <filter id="shadow" x="-20%" y="-20%" width="140%" height="140%">
      <feDropShadow dx="0" dy="8" stdDeviation="6" flood-color="#000000" flood-opacity="0.35" />
    </filter>
  </defs>

  <!-- Outer border -->
  <path d="
    M 80 40
    H 176
    Q 192 40 200 52
    L 216 76
    Q 224 88 220 104
    L 196 180
    Q 190 196 178 206
    L 136 236
    Q 128 242 120 236
    L 78 206
    Q 66 196 60 180
    L 36 104
    Q 32 88 40 76
    L 56 52
    Q 64 40 80 40
    Z"
    fill="none" stroke="#4C1D95" stroke-width="18" stroke-linejoin="round" filter="url(#shadow)"
  />

  <!-- Inner fill -->
  <path d="
    M 80 40
    H 176
    Q 192 40 200 52
    L 216 76
    Q 224 88 220 104
    L 196 180
    Q 190 196 178 206
    L 136 236
    Q 128 242 120 236
    L 78 206
    Q 66 196 60 180
    L 36 104
    Q 32 88 40 76
    L 56 52
    Q 64 40 80 40
    Z"
    fill="url(#vgGrad)"
  />
</svg>
